<mxfile host="app.diagrams.net" modified="2022-09-24T05:30:47.790Z" agent="5.0 (Windows NT 10.0; Win64; x64) AppleWebKit/537.36 (KHTML, like Gecko) Chrome/105.0.0.0 Safari/537.36" etag="hgzCPTYLNs5LYQjh194X" version="20.3.6" type="github">
  <diagram id="8r3MDyM1kwAwDi2U2UVU" name="ページ1">
    <mxGraphModel dx="2062" dy="1146" grid="1" gridSize="10" guides="1" tooltips="1" connect="1" arrows="1" fold="1" page="1" pageScale="1" pageWidth="827" pageHeight="1169" math="0" shadow="0">
      <root>
        <mxCell id="0" />
        <mxCell id="1" parent="0" />
        <mxCell id="SfvRl2KFgdxx55vroDqR-1" value="初期値セット&lt;br&gt;ファイルネーム列、チャプター番号行の2次元配列の準備" style="rounded=0;whiteSpace=wrap;html=1;" vertex="1" parent="1">
          <mxGeometry x="180" y="10" width="450" height="60" as="geometry" />
        </mxCell>
      </root>
    </mxGraphModel>
  </diagram>
</mxfile>
